<svg id="eyw6bhEQnro1" xmlns="http://www.w3.org/2000/svg" xmlns:xlink="http://www.w3.org/1999/xlink" viewBox="0 0 300 180" shape-rendering="geometricPrecision" text-rendering="geometricPrecision"><defs><filter id="eyw6bhEQnro9-filter" x="-150%" width="400%" y="-150%" height="400%"><feGaussianBlur id="eyw6bhEQnro9-filter-drop-shadow-0-blur" in="SourceAlpha" stdDeviation="2,4"/><feOffset id="eyw6bhEQnro9-filter-drop-shadow-0-offset" dx="1" dy="4" result="tmp"/><feFlood id="eyw6bhEQnro9-filter-drop-shadow-0-flood" flood-color="#ccc"/><feComposite id="eyw6bhEQnro9-filter-drop-shadow-0-composite" operator="in" in2="tmp"/><feMerge id="eyw6bhEQnro9-filter-drop-shadow-0-merge" result="result"><feMergeNode id="eyw6bhEQnro9-filter-drop-shadow-0-merge-node-1"/><feMergeNode id="eyw6bhEQnro9-filter-drop-shadow-0-merge-node-2" in="SourceGraphic"/></feMerge></filter><filter id="eyw6bhEQnro10-filter" x="-150%" width="400%" y="-150%" height="400%"><feGaussianBlur id="eyw6bhEQnro10-filter-drop-shadow-0-blur" in="SourceAlpha" stdDeviation="0,0"/><feOffset id="eyw6bhEQnro10-filter-drop-shadow-0-offset" dx="0" dy="0" result="tmp"/><feFlood id="eyw6bhEQnro10-filter-drop-shadow-0-flood" flood-color="#000"/><feComposite id="eyw6bhEQnro10-filter-drop-shadow-0-composite" operator="in" in2="tmp"/><feMerge id="eyw6bhEQnro10-filter-drop-shadow-0-merge" result="result"><feMergeNode id="eyw6bhEQnro10-filter-drop-shadow-0-merge-node-1"/><feMergeNode id="eyw6bhEQnro10-filter-drop-shadow-0-merge-node-2" in="SourceGraphic"/></feMerge></filter><filter id="eyw6bhEQnro16-filter" x="-150%" width="400%" y="-150%" height="400%"><feGaussianBlur id="eyw6bhEQnro16-filter-drop-shadow-0-blur" in="SourceAlpha" stdDeviation="2,5"/><feOffset id="eyw6bhEQnro16-filter-drop-shadow-0-offset" dx="2" dy="5" result="tmp"/><feFlood id="eyw6bhEQnro16-filter-drop-shadow-0-flood" flood-color="#ccc"/><feComposite id="eyw6bhEQnro16-filter-drop-shadow-0-composite" operator="in" in2="tmp"/><feMerge id="eyw6bhEQnro16-filter-drop-shadow-0-merge" result="result"><feMergeNode id="eyw6bhEQnro16-filter-drop-shadow-0-merge-node-1"/><feMergeNode id="eyw6bhEQnro16-filter-drop-shadow-0-merge-node-2" in="SourceGraphic"/></feMerge></filter></defs><path d="M140.86715,213.45689c-24.85057,2.083397-66.283586,10.854092-83.010495,0-14.083196-9.138587-18.910625-18.468006-21.807835-22.215399-4.371312-5.654069-23.015212-8.797697-26.028722-13.619307-7.07452-11.31923,17.660422-35.556794,26.028722-42.251434c19.12849-15.30279,48.3973-27.39675,71.75484-33.76698c12.02743-3.28021,24.34093-1.01323,35.87742-5.62783c11.94912-4.77965,20.124811-14.326848,30.95307-20.40089c45.900515-25.747599,84.934768-36.700221,114.667025-28.139155c11.852598,3.412821,23.2148,23.918279,23.2148,32.267933c0,12.983081,43.584227,31.807812,55.077381,39.059592c18.084413,11.410635,22.305285,12.321435,22.305285,32.851389c0,13.331199-15.810252,23.838764-22.305285,32.763006-4.308856,5.920413-18.320499,25.500318-24.124314,28.301876-5.645211,2.724998-27.904268,12.086081-61.202655,5.701549-12.627589-2.421176-29.174528-4.357761-44.319163-5.701549-17.012952-1.509564-80.836044-6.49761-97.080074,0" transform="matrix(.732509 0 0 0.798193 3.395678-15.334051)" fill="rgba(235,242,246,0.56)" stroke-width="0.8"/><g transform="matrix(.834121 0 0 0.836107 24.768548 46.929985)"><rect width="239.376771" height="75.779037" rx="5" ry="5" transform="translate(31.019832 47.745044)" fill="#d3d3d3"/><rect width="241.45203" height="79.196292" rx="5" ry="5" transform="matrix(.964498 0 0 0.876935 34.560792 50.407918)" fill="#f1f1f1"/><rect width="239.376771" height="75.779037" rx="5" ry="5" transform="matrix(.884449 0 0 0.207251 44.141727 58.657276)" fill="#acc5eb"/><rect width="239.376771" height="75.779037" rx="5" ry="5" transform="matrix(.653678 0 0 0.106624 44.141727 81.594631)" fill="#d4dce8"/><rect width="239.376771" height="75.779037" rx="5" ry="5" transform="matrix(.520713 0 0 0.106624 44.141727 97.883583)" fill="#d4dce8"/></g><g transform="matrix(.943479 0 0 0.842806 7.912281 17.800608)" filter="url(#eyw6bhEQnro9-filter)"><rect width="239.376771" height="75.779037" rx="5" ry="5" transform="matrix(1.003138 0 0 1 30.64425 47.745044)" filter="url(#eyw6bhEQnro10-filter)" fill="#dcdcdc"/><rect width="241.45203" height="79.196292" rx="5" ry="5" transform="matrix(.964498 0 0 0.876935 34.560792 50.407918)" fill="#f1f1f1"/><rect width="239.376771" height="75.779037" rx="5" ry="5" transform="matrix(.884449 0 0 0.207251 44.141727 58.657276)" fill="#acc5eb"/><rect width="239.376771" height="75.779037" rx="5" ry="5" transform="matrix(.653678 0 0 0.106624 44.141727 81.594631)" fill="#d4dce8"/><rect width="239.376771" height="75.779037" rx="5" ry="5" transform="matrix(.520713 0 0 0.106624 44.141727 97.883583)" fill="#d4dce8"/></g><g transform="matrix(1.033279 0 0 0.836132-7.582257-7.667608)"><rect width="239.376771" height="75.779037" rx="3" ry="3" transform="translate(31.019832 47.745044)" filter="url(#eyw6bhEQnro16-filter)" fill="#1b72ff"/><rect width="244.126618" height="79.196292" rx="3" ry="3" transform="matrix(.964498 0 0 0.876935 32.9784 50.909563)" fill="#f1f1f1"/><rect width="239.376771" height="75.779037" rx="5" ry="5" transform="matrix(.884449 0 0 0.207251 44.141727 58.657276)" fill="#acc5eb"/><rect width="239.376771" height="75.779037" rx="5" ry="5" transform="matrix(.653678 0 0 0.106624 44.141727 81.594631)" fill="#d4dce8"/><rect width="239.376771" height="75.779037" rx="5" ry="5" transform="matrix(.520713 0 0 0.106624 44.141727 97.883583)" fill="#d4dce8"/></g></svg>
